<?xml version="1.0" encoding="UTF-8"?>
<svg xmlns="http://www.w3.org/2000/svg" width="1440" height="900" viewBox="0 0 1440 900"><g id="00 Flow map"><rect x="0" y="0" width="1440" height="900" fill="#fafafa"/><text x="48" y="188" fill="#9f9fa9" font-family="Inter" font-size="11" font-weight="600" letter-spacing="0.55" xml:space="preserve">AUTH</text><text x="48" y="398" fill="#9f9fa9" font-family="Inter" font-size="11" font-weight="600" letter-spacing="0.55" xml:space="preserve">ONBOARDING</text><text x="48" y="608" fill="#9f9fa9" font-family="Inter" font-size="11" font-weight="600" letter-spacing="0.55" xml:space="preserve">APP</text><g transform="translate(0 0) scale(1 1)">
          <g fill="none" stroke="#a1a1aa" stroke-width="1.5" stroke-linejoin="round">
            <path d="M295 228V344"></path>
            <path d="M390 394H424"></path><path d="M620 394H654"></path>
            <path d="M755 438V500H295V554"></path>
            <path d="M390 604H424"></path><path d="M620 604H654"></path>
            <path d="M525 228V290H1000V604H856"></path>
            <path d="M620 184H654"></path><path d="M850 184H884"></path>
            <path d="M985 140V110H545V134"></path>
            <path d="M755 648V710"></path><path d="M525 710H1215"></path>
            <path d="M525 710V764"></path><path d="M755 710V764"></path><path d="M985 710V764"></path><path d="M1215 710V764"></path>
            <path d="M1310 814H1380V80H505V134"></path>
          </g>
          <g fill="#a1a1aa">
            <path d="M290.5 342L295 350L299.5 342Z"></path>
            <path d="M422 389.5L430 394L422 398.5Z"></path><path d="M652 389.5L660 394L652 398.5Z"></path>
            <path d="M290.5 552L295 560L299.5 552Z"></path>
            <path d="M422 599.5L430 604L422 608.5Z"></path><path d="M652 599.5L660 604L652 608.5Z"></path>
            <path d="M858 599.5L850 604L858 608.5Z"></path>
            <path d="M652 179.5L660 184L652 188.5Z"></path><path d="M882 179.5L890 184L882 188.5Z"></path>
            <path d="M540.5 132L545 140L549.5 132Z"></path>
            <path d="M520.5 762L525 770L529.5 762Z"></path><path d="M750.5 762L755 770L759.5 762Z"></path><path d="M980.5 762L985 770L989.5 762Z"></path><path d="M1210.5 762L1215 770L1219.5 762Z"></path>
            <path d="M500.5 132L505 140L509.5 132Z"></path>
          </g>
        </g><rect x="303" y="282" width="55.69" height="16.5" fill="#fafafa"/><text x="307" y="294" fill="#71717b" font-family="Inter" font-size="11" font-weight="400" xml:space="preserve">new user</text><rect x="700" y="282" width="81.16" height="16.5" fill="#fafafa"/><text x="704" y="294" fill="#71717b" font-family="Inter" font-size="11" font-weight="400" xml:space="preserve">returning user</text><rect x="470" y="492" width="96.66" height="16.5" fill="#fafafa"/><text x="474" y="504" fill="#71717b" font-family="Inter" font-size="11" font-weight="400" xml:space="preserve">onboarding done</text><rect x="720" y="102" width="113.16" height="16.5" fill="#fafafa"/><text x="724" y="114" fill="#71717b" font-family="Inter" font-size="11" font-weight="400" xml:space="preserve">reset link from email</text><rect x="1180" y="72" width="43.81" height="16.5" fill="#fafafa"/><text x="1184" y="84" fill="#71717b" font-family="Inter" font-size="11" font-weight="400" xml:space="preserve">log out</text><rect x="533" y="728" width="67.56" height="16.5" fill="#fafafa"/><text x="537" y="740" fill="#71717b" font-family="Inter" font-size="11" font-weight="400" xml:space="preserve">click a card</text><rect x="763" y="728" width="25.58" height="16.5" fill="#fafafa"/><text x="767" y="740" fill="#71717b" font-family="Inter" font-size="11" font-weight="400" xml:space="preserve">⌘K</text><rect x="993" y="728" width="46.78" height="16.5" fill="#fafafa"/><text x="997" y="740" fill="#71717b" font-family="Inter" font-size="11" font-weight="400" xml:space="preserve">sidebar</text><rect x="1223" y="728" width="46.78" height="16.5" fill="#fafafa"/><text x="1227" y="740" fill="#71717b" font-family="Inter" font-size="11" font-weight="400" xml:space="preserve">sidebar</text><g id="Box 01"><rect x="200.5" y="140.5" width="189" height="87" rx="7.5" fill="#ffffff" stroke="#d4d4d8" stroke-width="1"/><text x="213" y="164" fill="#9f9fa9" font-family="JetBrains Mono" font-size="10" font-weight="400" xml:space="preserve">01</text><text x="213" y="185" fill="#18181b" font-family="Inter" font-size="14" font-weight="600" xml:space="preserve">Sign up</text><text x="213" y="205" fill="#4f39f6" font-family="JetBrains Mono" font-size="10" font-weight="400" xml:space="preserve">/signup</text></g><g id="Box 02"><rect x="430.5" y="140.5" width="189" height="87" rx="7.5" fill="#ffffff" stroke="#d4d4d8" stroke-width="1"/><text x="443" y="164" fill="#9f9fa9" font-family="JetBrains Mono" font-size="10" font-weight="400" xml:space="preserve">02</text><text x="443" y="185" fill="#18181b" font-family="Inter" font-size="14" font-weight="600" xml:space="preserve">Log in</text><text x="443" y="205" fill="#4f39f6" font-family="JetBrains Mono" font-size="10" font-weight="400" xml:space="preserve">/login</text></g><g id="Box 03"><rect x="660.5" y="140.5" width="189" height="87" rx="7.5" fill="#ffffff" stroke="#d4d4d8" stroke-width="1"/><text x="673" y="164" fill="#9f9fa9" font-family="JetBrains Mono" font-size="10" font-weight="400" xml:space="preserve">03</text><text x="673" y="185" fill="#18181b" font-family="Inter" font-size="14" font-weight="600" xml:space="preserve">Forgot password</text><text x="673" y="205" fill="#4f39f6" font-family="JetBrains Mono" font-size="10" font-weight="400" xml:space="preserve">/forgot-password</text></g><g id="Box 04"><rect x="890.5" y="140.5" width="189" height="87" rx="7.5" fill="#ffffff" stroke="#d4d4d8" stroke-width="1"/><text x="903" y="164" fill="#9f9fa9" font-family="JetBrains Mono" font-size="10" font-weight="400" xml:space="preserve">04</text><text x="903" y="185" fill="#18181b" font-family="Inter" font-size="14" font-weight="600" xml:space="preserve">Check your email</text><text x="903" y="205" fill="#4f39f6" font-family="JetBrains Mono" font-size="10" font-weight="400" xml:space="preserve">/forgot-password/sent</text></g><g id="Box 05"><rect x="200.5" y="350.5" width="189" height="87" rx="7.5" fill="#ffffff" stroke="#d4d4d8" stroke-width="1"/><text x="213" y="374" fill="#9f9fa9" font-family="JetBrains Mono" font-size="10" font-weight="400" xml:space="preserve">05</text><text x="213" y="395" fill="#18181b" font-family="Inter" font-size="14" font-weight="600" xml:space="preserve">Create workspace</text><text x="213" y="415" fill="#4f39f6" font-family="JetBrains Mono" font-size="10" font-weight="400" xml:space="preserve">/onboarding/workspace</text></g><g id="Box 06"><rect x="430.5" y="350.5" width="189" height="87" rx="7.5" fill="#ffffff" stroke="#d4d4d8" stroke-width="1"/><text x="443" y="374" fill="#9f9fa9" font-family="JetBrains Mono" font-size="10" font-weight="400" xml:space="preserve">06</text><text x="443" y="395" fill="#18181b" font-family="Inter" font-size="14" font-weight="600" xml:space="preserve">Create team</text><text x="443" y="415" fill="#4f39f6" font-family="JetBrains Mono" font-size="10" font-weight="400" xml:space="preserve">/onboarding/team</text></g><g id="Box 07"><rect x="660.5" y="350.5" width="189" height="87" rx="7.5" fill="#ffffff" stroke="#d4d4d8" stroke-width="1"/><text x="673" y="374" fill="#9f9fa9" font-family="JetBrains Mono" font-size="10" font-weight="400" xml:space="preserve">07</text><text x="673" y="395" fill="#18181b" font-family="Inter" font-size="14" font-weight="600" xml:space="preserve">Invite teammates</text><text x="673" y="415" fill="#4f39f6" font-family="JetBrains Mono" font-size="10" font-weight="400" xml:space="preserve">/onboarding/invite</text></g><g id="Box 08"><rect x="200.5" y="560.5" width="189" height="87" rx="7.5" fill="#ffffff" stroke="#d4d4d8" stroke-width="1"/><text x="213" y="584" fill="#9f9fa9" font-family="JetBrains Mono" font-size="10" font-weight="400" xml:space="preserve">08</text><text x="213" y="605" fill="#18181b" font-family="Inter" font-size="14" font-weight="600" xml:space="preserve">Empty board</text><text x="213" y="625" fill="#4f39f6" font-family="JetBrains Mono" font-size="10" font-weight="400" xml:space="preserve">/acme/web/board</text></g><g id="Box 09"><rect x="430.5" y="560.5" width="189" height="87" rx="7.5" fill="#ffffff" stroke="#d4d4d8" stroke-width="1"/><text x="443" y="584" fill="#9f9fa9" font-family="JetBrains Mono" font-size="10" font-weight="400" xml:space="preserve">09</text><text x="443" y="605" fill="#18181b" font-family="Inter" font-size="14" font-weight="600" xml:space="preserve">New issue</text><text x="443" y="625" fill="#4f39f6" font-family="JetBrains Mono" font-size="10" font-weight="400" xml:space="preserve">dialog · press C</text></g><g id="Box 10"><rect x="658" y="558" width="194" height="92" rx="10" fill="none" stroke="#e0e7ff" stroke-width="4"/><rect x="660.5" y="560.5" width="189" height="87" rx="7.5" fill="#ffffff" stroke="#615fff" stroke-width="1"/><text x="673" y="584" fill="#9f9fa9" font-family="JetBrains Mono" font-size="10" font-weight="400" xml:space="preserve">10</text><text x="673" y="605" fill="#18181b" font-family="Inter" font-size="14" font-weight="600" xml:space="preserve">Board</text><text x="673" y="625" fill="#4f39f6" font-family="JetBrains Mono" font-size="10" font-weight="400" xml:space="preserve">/acme/web/board</text></g><g id="Box 11"><rect x="430.5" y="770.5" width="189" height="87" rx="7.5" fill="#ffffff" stroke="#d4d4d8" stroke-width="1"/><text x="443" y="794" fill="#9f9fa9" font-family="JetBrains Mono" font-size="10" font-weight="400" xml:space="preserve">11</text><text x="443" y="815" fill="#18181b" font-family="Inter" font-size="14" font-weight="600" xml:space="preserve">Issue panel</text><text x="443" y="835" fill="#4f39f6" font-family="JetBrains Mono" font-size="10" font-weight="400" xml:space="preserve">/acme/issue/WEB-12</text></g><g id="Box 12"><rect x="660.5" y="770.5" width="189" height="87" rx="7.5" fill="#ffffff" stroke="#d4d4d8" stroke-width="1"/><text x="673" y="794" fill="#9f9fa9" font-family="JetBrains Mono" font-size="10" font-weight="400" xml:space="preserve">12</text><text x="673" y="815" fill="#18181b" font-family="Inter" font-size="14" font-weight="600" xml:space="preserve">Command palette</text><text x="673" y="835" fill="#4f39f6" font-family="JetBrains Mono" font-size="10" font-weight="400" xml:space="preserve">overlay · ⌘K</text></g><g id="Box 13"><rect x="890.5" y="770.5" width="189" height="87" rx="7.5" fill="#ffffff" stroke="#d4d4d8" stroke-width="1"/><text x="903" y="794" fill="#9f9fa9" font-family="JetBrains Mono" font-size="10" font-weight="400" xml:space="preserve">13</text><text x="903" y="815" fill="#18181b" font-family="Inter" font-size="14" font-weight="600" xml:space="preserve">Inbox</text><text x="903" y="835" fill="#4f39f6" font-family="JetBrains Mono" font-size="10" font-weight="400" xml:space="preserve">/acme/inbox</text></g><g id="Box 14"><rect x="1120.5" y="770.5" width="189" height="87" rx="7.5" fill="#ffffff" stroke="#d4d4d8" stroke-width="1"/><text x="1133" y="794" fill="#9f9fa9" font-family="JetBrains Mono" font-size="10" font-weight="400" xml:space="preserve">14</text><text x="1133" y="815" fill="#18181b" font-family="Inter" font-size="14" font-weight="600" xml:space="preserve">Members + log out</text><text x="1133" y="835" fill="#4f39f6" font-family="JetBrains Mono" font-size="10" font-weight="400" xml:space="preserve">/acme/settings/members</text></g><text x="48" y="801" fill="#18181b" font-family="Inter" font-size="20" font-weight="600" letter-spacing="-0.5" xml:space="preserve">Linear-lite user flow</text><text x="48" y="830" fill="#71717b" font-family="Inter" font-size="14" font-weight="400" xml:space="preserve">Each box is one route in the Next.js app. The board</text><text x="48" y="852.75" fill="#71717b" font-family="Inter" font-size="14" font-weight="400" xml:space="preserve">is the hub; everything after onboarding starts</text><text x="48" y="875.5" fill="#71717b" font-family="Inter" font-size="14" font-weight="400" xml:space="preserve">there.</text></g></svg>
